<svg xmlns="http://www.w3.org/2000/svg" viewBox="140 200 520 290">
  <!-- Floor/Ground line -->
  <line x1="150" y1="520" x2="650" y2="520" stroke="#333" stroke-width="3"/>
  
  <!-- Desk -->
  <path d="M200,400 L600,400 L650,520 L150,520" fill="#e0e0e0" stroke="#bbb" stroke-width="2"/>
  <path d="M200,400 L600,400 L650,440 L150,440" fill="#d0d0d0" stroke="#bbb" stroke-width="1"/>
  
  <!-- Monitor -->
  <rect x="275" y="200" width="250" height="170" rx="5" ry="5" fill="#404254" stroke="#333" stroke-width="2"/>
  <rect x="285" y="210" width="230" height="140" rx="2" ry="2" fill="#1e2638"/>
  
  <!-- Monitor Stand -->
  <path d="M375,370 L425,370 L415,400 L385,400" fill="#333" stroke="#222" stroke-width="1"/>
  
  <!-- Cloud Infrastructure Console on Screen -->
  
  <!-- Cloud Console Window -->
  <rect x="290" y="215" width="220" height="130" rx="2" ry="2" fill="#252a36"/>
  
  <!-- Cloud Console Sidebar - Services -->
  <rect x="290" y="215" width="45" height="130" fill="#1e2326"/>
  <rect x="295" y="225" width="35" height="8" rx="1" ry="1" fill="#3c4349" opacity="0.9"/>
  <rect x="300" y="238" width="30" height="6" rx="1" ry="1" fill="#4286f4" opacity="0.7"/>
  <rect x="305" y="248" width="25" height="6" rx="1" ry="1" fill="#4286f4" opacity="0.5"/>
  <rect x="305" y="258" width="25" height="6" rx="1" ry="1" fill="#4286f4" opacity="0.5"/>
  <rect x="305" y="268" width="25" height="6" rx="1" ry="1" fill="#4286f4" opacity="0.5"/>
  <rect x="300" y="278" width="30" height="6" rx="1" ry="1" fill="#4286f4" opacity="0.7"/>
  <rect x="305" y="288" width="25" height="6" rx="1" ry="1" fill="#4286f4" opacity="0.5"/>
  <rect x="305" y="298" width="25" height="6" rx="1" ry="1" fill="#4286f4" opacity="0.5"/>
  <rect x="300" y="308" width="30" height="6" rx="1" ry="1" fill="#4286f4" opacity="0.7"/>
  <rect x="305" y="318" width="25" height="6" rx="1" ry="1" fill="#4286f4" opacity="0.5"/>
  
  <!-- Cloud Console Top Bar -->
  <rect x="335" y="215" width="175" height="20" fill="#1a1d24"/>
  <rect x="345" y="221" width="30" height="8" rx="1" ry="1" fill="#4286f4" opacity="0.8"/>
  <rect x="385" y="221" width="30" height="8" rx="1" ry="1" fill="#4286f4" opacity="0.8"/>
  <rect x="425" y="221" width="30" height="8" rx="1" ry="1" fill="#4286f4" opacity="0.8"/>
  
  <!-- Cloud Console Main Area - Infrastructure Diagram -->
  <rect x="335" y="235" width="175" height="110" fill="#1c2334"/>
  
  <!-- Cloud Architecture Elements -->
  
  <!-- VPC/Network Cloud -->
  <path d="M350,245 Q355,240 360,245 Q370,235 380,245 Q385,242 390,245 Q400,235 410,245 Q420,240 425,245 Q430,243 435,245 Q440,240 445,245 L445,295 Q440,300 435,295 Q430,297 425,295 Q420,300 415,295 Q405,305 395,295 Q390,298 385,295 Q375,305 365,295 Q360,298 355,295 Q350,300 345,295 L345,245 Q350,240 355,245 Z" fill="#4286f4" fill-opacity="0.15" stroke="#4286f4" stroke-width="1.5"/>
  
  <!-- Cloud Servers / VMs -->
  <rect x="355" y="255" width="24" height="30" rx="2" ry="2" fill="#f5f5f5" stroke="#999" stroke-width="1"/>
  <rect x="355" y="255" width="24" height="6" rx="2" ry="2" fill="#e6e6e6" stroke="#999" stroke-width="1"/>
  <rect x="357" y="263" width="20" height="2" rx="1" ry="1" fill="#4286f4" opacity="0.7"/>
  <rect x="357" y="267" width="20" height="2" rx="1" ry="1" fill="#4286f4" opacity="0.7"/>
  <rect x="357" y="271" width="20" height="2" rx="1" ry="1" fill="#4286f4" opacity="0.7"/>
  <rect x="357" y="275" width="20" height="2" rx="1" ry="1" fill="#4286f4" opacity="0.7"/>
  <rect x="357" y="279" width="20" height="2" rx="1" ry="1" fill="#4286f4" opacity="0.7"/>
  
  <rect x="385" y="255" width="24" height="30" rx="2" ry="2" fill="#f5f5f5" stroke="#999" stroke-width="1"/>
  <rect x="385" y="255" width="24" height="6" rx="2" ry="2" fill="#e6e6e6" stroke="#999" stroke-width="1"/>
  <rect x="387" y="263" width="20" height="2" rx="1" ry="1" fill="#4286f4" opacity="0.7"/>
  <rect x="387" y="267" width="20" height="2" rx="1" ry="1" fill="#4286f4" opacity="0.7"/>
  <rect x="387" y="271" width="20" height="2" rx="1" ry="1" fill="#4286f4" opacity="0.7"/>
  <rect x="387" y="275" width="20" height="2" rx="1" ry="1" fill="#4286f4" opacity="0.7"/>
  <rect x="387" y="279" width="20" height="2" rx="1" ry="1" fill="#4286f4" opacity="0.7"/>
  
  <rect x="415" y="255" width="24" height="30" rx="2" ry="2" fill="#f5f5f5" stroke="#999" stroke-width="1"/>
  <rect x="415" y="255" width="24" height="6" rx="2" ry="2" fill="#e6e6e6" stroke="#999" stroke-width="1"/>
  <rect x="417" y="263" width="20" height="2" rx="1" ry="1" fill="#4286f4" opacity="0.7"/>
  <rect x="417" y="267" width="20" height="2" rx="1" ry="1" fill="#4286f4" opacity="0.7"/>
  <rect x="417" y="271" width="20" height="2" rx="1" ry="1" fill="#4286f4" opacity="0.7"/>
  <rect x="417" y="275" width="20" height="2" rx="1" ry="1" fill="#4286f4" opacity="0.7"/>
  <rect x="417" y="279" width="20" height="2" rx="1" ry="1" fill="#4286f4" opacity="0.7"/>
  
  <!-- Database Cluster -->
  <rect x="355" y="295" width="24" height="30" rx="2" ry="2" fill="#f5f5f5" stroke="#999" stroke-width="1"/>
  <rect x="355" y="295" width="24" height="6" rx="2" ry="2" fill="#e6e6e6" stroke="#999" stroke-width="1"/>
  <circle cx="367" cy="310" r="8" fill="#4286f4" fill-opacity="0.3" stroke="#4286f4" stroke-width="1"/>
  <path d="M363,310 L371,310 M367,306 L367,314" stroke="#4286f4" stroke-width="1.5"/>
  
  <rect x="385" y="295" width="24" height="30" rx="2" ry="2" fill="#f5f5f5" stroke="#999" stroke-width="1"/>
  <rect x="385" y="295" width="24" height="6" rx="2" ry="2" fill="#e6e6e6" stroke="#999" stroke-width="1"/>
  <circle cx="397" cy="310" r="8" fill="#4286f4" fill-opacity="0.3" stroke="#4286f4" stroke-width="1"/>
  <path d="M393,310 L401,310 M397,306 L397,314" stroke="#4286f4" stroke-width="1.5"/>
  
  <!-- Load Balancer -->
  <polygon points="405,235 425,235 430,245 400,245" fill="#f5f5f5" stroke="#999" stroke-width="1"/>
  <line x1="410" y1="239" x2="420" y2="239" stroke="#4286f4" stroke-width="1.5"/>
  <line x1="412" y1="242" x2="418" y2="242" stroke="#4286f4" stroke-width="1.5"/>
  
  <!-- Connection Lines -->
  <line x1="415" y1="245" x2="415" y2="255" stroke="#4286f4" stroke-width="1.5" stroke-dasharray="2,2"/>
  <line x1="415" y1="245" x2="397" y2="255" stroke="#4286f4" stroke-width="1.5" stroke-dasharray="2,2"/>
  <line x1="415" y1="245" x2="367" y2="255" stroke="#4286f4" stroke-width="1.5" stroke-dasharray="2,2"/>
  
  <line x1="367" y1="285" x2="367" y2="295" stroke="#4286f4" stroke-width="1.5" stroke-dasharray="2,2"/>
  <line x1="397" y1="285" x2="397" y2="295" stroke="#4286f4" stroke-width="1.5" stroke-dasharray="2,2"/>
  <line x1="367" y1="285" x2="397" y2="295" stroke="#4286f4" stroke-width="1.5" stroke-dasharray="2,2"/>
  <line x1="397" y1="285" x2="367" y2="295" stroke="#4286f4" stroke-width="1.5" stroke-dasharray="2,2"/>

  <!-- CI/CD Pipeline (Kubernetes/Cloud Native) -->
  <rect x="170" y="240" width="90" height="60" rx="3" ry="3" fill="#f5f5f5" fill-opacity="0.9" stroke="#999" stroke-width="1"/>
  <circle cx="185" cy="255" r="8" fill="#326ce5" fill-opacity="0.9"/>
  <path d="M185,251 L185,259 M181,255 L189,255" stroke="white" stroke-width="1.5"/>
  <line x1="195" y1="255" x2="215" y2="255" stroke="#666" stroke-width="1" stroke-dasharray="2,1"/>
  <rect x="215" y="250" width="10" height="10" fill="#4caf50" stroke="#388e3c" stroke-width="1"/>
  <line x1="225" y1="255" x2="235" y2="255" stroke="#666" stroke-width="1" stroke-dasharray="2,1"/>
  <rect x="235" y="250" width="10" height="10" fill="#f44336" stroke="#d32f2f" stroke-width="1"/>
  
  <path d="M180,275 C180,270 190,270 190,275 L190,285 C190,290 180,290 180,285 Z" fill="#326ce5" fill-opacity="0.7" stroke="#326ce5" stroke-width="1"/>
  <line x1="195" y1="280" x2="215" y2="280" stroke="#666" stroke-width="1" stroke-dasharray="2,1"/>
  <path d="M215,275 C215,270 225,270 225,275 L225,285 C225,290 215,290 215,285 Z" fill="#326ce5" fill-opacity="0.7" stroke="#326ce5" stroke-width="1"/>
  <line x1="225" y1="280" x2="245" y2="280" stroke="#666" stroke-width="1" stroke-dasharray="2,1"/>
  <path d="M245,275 C245,270 255,270 255,275 L255,285 C255,290 245,290 245,285 Z" fill="#326ce5" fill-opacity="0.7" stroke="#326ce5" stroke-width="1"/>
  
  <!-- Terraform Logo -->
  <g transform="translate(530,190) scale(0.5)">
    <path d="M77.941 44.5v36.836L46.324 62.918V26.082zm0 0" fill="#5c4ee5"/>
    <path d="M81.41 81.336l31.633-18.418V26.082L81.41 44.5zm0 0" fill="#4040b2"/>
    <path d="M11.242 42.36L42.86 60.776V23.941L11.242 5.523zm0 0M77.941 85.375L46.324 66.957v36.82l31.617 18.418zm0 0" fill="#5c4ee5"/>
  </g>

   <!-- AWS Logo -->
  <g transform="translate(540,270) scale(0.15)">
    <path fill="#252F3E" d="M86.4,66.4c0,3.7,0.4,6.7,1.1,8.9c0.8,2.2,1.8,4.6,3.2,7.2c0.5,0.8,0.7,1.6,0.7,2.3c0,1-0.6,2-1.9,3l-6.3,4.2   c-0.9,0.6-1.8,0.9-2.6,0.9c-1,0-2-0.5-3-1.4C76.2,90,75,88.4,74,86.8c-1-1.7-2-3.6-3.1-5.9c-7.8,9.2-17.6,13.8-29.4,13.8   c-8.4,0-15.1-2.4-20-7.2c-4.9-4.8-7.4-11.2-7.4-19.2c0-8.5,3-15.4,9.1-20.6c6.1-5.2,14.2-7.8,24.5-7.8c3.4,0,6.9,0.3,10.6,0.8   c3.7,0.5,7.5,1.3,11.5,2.2v-7.3c0-7.6-1.6-12.9-4.7-16c-3.2-3.1-8.6-4.6-16.3-4.6c-3.5,0-7.1,0.4-10.8,1.3c-3.7,0.9-7.3,2-10.8,3.4   c-1.6,0.7-2.8,1.1-3.5,1.3c-0.7,0.2-1.2,0.3-1.6,0.3c-1.4,0-2.1-1-2.1-3.1v-4.9c0-1.6,0.2-2.8,0.7-3.5c0.5-0.7,1.4-1.4,2.8-2.1   c3.5-1.8,7.7-3.3,12.6-4.5c4.9-1.3,10.1-1.9,15.6-1.9c11.9,0,20.6,2.7,26.2,8.1c5.5,5.4,8.3,13.6,8.3,24.6V66.4z M45.8,81.6   c3.3,0,6.7-0.6,10.3-1.8c3.6-1.2,6.8-3.4,9.5-6.4c1.6-1.9,2.8-4,3.4-6.4c0.6-2.4,1-5.3,1-8.7v-4.2c-2.9-0.7-6-1.3-9.2-1.7   c-3.2-0.4-6.3-0.6-9.4-0.6c-6.7,0-11.6,1.3-14.9,4c-3.3,2.7-4.9,6.5-4.9,11.5c0,4.7,1.2,8.2,3.7,10.6   C37.7,80.4,41.2,81.6,45.8,81.6z M126.1,92.4c-1.8,0-3-0.3-3.8-1c-0.8-0.6-1.5-2-2.1-3.9L96.7,10.2c-0.6-2-0.9-3.3-0.9-4   c0-1.6,0.8-2.5,2.4-2.5h9.8c1.9,0,3.2,0.3,3.9,1c0.8,0.6,1.4,2,2,3.9l16.8,66.2l15.6-66.2c0.5-2,1.1-3.3,1.9-3.9c0.8-0.6,2.2-1,4-1   h8c1.9,0,3.2,0.3,4,1c0.8,0.6,1.5,2,1.9,3.9l15.8,67l17.3-67c0.6-2,1.3-3.3,2-3.9c0.8-0.6,2.1-1,3.9-1h9.3c1.6,0,2.5,0.8,2.5,2.5   c0,0.5-0.1,1-0.2,1.6c-0.1,0.6-0.3,1.4-0.7,2.5l-24.1,77.3c-0.6,2-1.3,3.3-2.1,3.9c-0.8,0.6-2.1,1-3.8,1h-8.6c-1.9,0-3.2-0.3-4-1   c-0.8-0.7-1.5-2-1.9-4L156,23l-15.4,64.4c-0.5,2-1.1,3.3-1.9,4c-0.8,0.7-2.2,1-4,1H126.1z M254.6,95.1c-5.2,0-10.4-0.6-15.4-1.8   c-5-1.2-8.9-2.5-11.5-4c-1.6-0.9-2.7-1.9-3.1-2.8c-0.4-0.9-0.6-1.9-0.6-2.8v-5.1c0-2.1,0.8-3.1,2.3-3.1c0.6,0,1.2,0.1,1.8,0.3   c0.6,0.2,1.5,0.6,2.5,1c3.4,1.5,7.1,2.7,11,3.5c4,0.8,7.9,1.2,11.9,1.2c6.3,0,11.2-1.1,14.6-3.3c3.4-2.2,5.2-5.4,5.2-9.5   c0-2.8-0.9-5.1-2.7-7c-1.8-1.9-5.2-3.6-10.1-5.2L246,52c-7.3-2.3-12.7-5.7-16-10.2c-3.3-4.4-5-9.3-5-14.5c0-4.2,0.9-7.9,2.7-11.1   c1.8-3.2,4.2-6,7.2-8.2c3-2.3,6.4-4,10.4-5.2c4-1.2,8.2-1.7,12.6-1.7c2.2,0,4.5,0.1,6.7,0.4c2.3,0.3,4.4,0.7,6.5,1.1   c2,0.5,3.9,1,5.7,1.6c1.8,0.6,3.2,1.2,4.2,1.8c1.4,0.8,2.4,1.6,3,2.5c0.6,0.8,0.9,1.9,0.9,3.3v4.7c0,2.1-0.8,3.2-2.3,3.2   c-0.8,0-2.1-0.4-3.8-1.2c-5.7-2.6-12.1-3.9-19.2-3.9c-5.7,0-10.2,0.9-13.3,2.8c-3.1,1.9-4.7,4.8-4.7,8.9c0,2.8,1,5.2,3,7.1   c2,1.9,5.7,3.8,11,5.5l14.2,4.5c7.2,2.3,12.4,5.5,15.5,9.6c3.1,4.1,4.6,8.8,4.6,14c0,4.3-0.9,8.2-2.6,11.6   c-1.8,3.4-4.2,6.4-7.3,8.8c-3.1,2.5-6.8,4.3-11.1,5.6C264.4,94.4,259.7,95.1,254.6,95.1z"/>
    <g>
      <path fill="#FF9900" d="M273.5,143.7c-32.9,24.3-80.7,37.2-121.8,37.2c-57.6,0-109.5-21.3-148.7-56.7c-3.1-2.8-0.3-6.6,3.4-4.4    c42.4,24.6,94.7,39.5,148.8,39.5c36.5,0,76.6-7.6,113.5-23.2C274.2,133.6,278.9,139.7,273.5,143.7z"/>
      <path fill="#FF9900" d="M287.2,128.1c-4.2-5.4-27.8-2.6-38.5-1.3c-3.2,0.4-3.7-2.4-0.8-4.5c18.8-13.2,49.7-9.4,53.3-5    c3.6,4.5-1,35.4-18.6,50.2c-2.7,2.3-5.3,1.1-4.1-1.9C282.5,155.7,291.4,133.4,287.2,128.1z"/>
    </g>
  </g>
  
  <!-- GCP Logo -->
  <g transform="translate(540,320) scale(0.55)">
    <path d="M40.728 20.488l2.05.035 5.57-5.57.27-2.36C44.2 8.657 38.367 6.26 31.993 6.26c-11.54 0-21.28 7.852-24.163 18.488.608-.424 1.908-.106 1.908-.106l11.13-1.83s.572-.947.862-.9A13.88 13.88 0 0 1 32 17.375c3.3.007 6.34 1.173 8.728 3.102z" fill="#ea4335"/>
    <path d="M56.17 24.77c-1.293-4.77-3.958-8.982-7.555-12.177l-7.887 7.887c3.16 2.55 5.187 6.452 5.187 10.82v1.392c3.837 0 6.954 3.124 6.954 6.954 0 3.837-3.124 6.954-6.954 6.954H32.007L30.615 48v8.346l1.392 1.385h13.908A18.11 18.11 0 0 0 64 39.647c-.007-6.155-3.1-11.6-7.83-14.876z" fill="#4285f4"/>
    <path d="M18.085 57.74h13.9V46.6h-13.9a6.89 6.89 0 0 1-2.862-.622l-2.007.615-5.57 5.57-.488 1.88a18 18 0 0 0 10.926 3.689z" fill="#34a853"/>
    <path d="M18.085 21.57A18.11 18.11 0 0 0 0 39.654c0 5.873 2.813 11.095 7.166 14.403l8.064-8.064a6.96 6.96 0 0 1-4.099-6.339c0-3.837 3.124-6.954 6.954-6.954 2.82 0 5.244 1.7 6.34 4.1l8.064-8.064c-3.307-4.353-8.53-7.166-14.403-7.166z" fill="#fbbc05"/>
  </g>

  <!-- Secondary Monitor (for monitoring dashboard) -->
  <rect x="160" y="320" width="120" height="70" rx="3" ry="3" fill="#333" stroke="#222" stroke-width="1.5"/>
  <rect x="165" y="325" width="110" height="60" rx="2" ry="2" fill="#1e2638"/>
  
  <!-- Monitoring Dashboard -->
  <rect x="170" y="330" width="100" height="15" rx="1" ry="1" fill="#1a1d24"/>
  <rect x="175" y="336" width="30" height="5" rx="1" ry="1" fill="#4286f4" opacity="0.7"/>
  <rect x="210" y="336" width="30" height="5" rx="1" ry="1" fill="#4286f4" opacity="0.7"/>
  
  <!-- CPU Chart -->
  <rect x="170" y="350" width="47" height="30" rx="1" ry="1" fill="#1a1d24"/>
  <path d="M175,370 L215,370" stroke="#666" stroke-width="0.5"/>
  <path d="M175,360 L185,365 L195,355 L205,360 L215,358" stroke="#4caf50" stroke-width="1" fill="none"/>
  
  <!-- Memory Chart -->
  <rect x="223" y="350" width="47" height="30" rx="1" ry="1" fill="#1a1d24"/>
  <path d="M228,370 L268,370" stroke="#666" stroke-width="0.5"/>
  <path d="M228,360 L238,363 L248,355 L258,367 L268,358" stroke="#f44336" stroke-width="1" fill="none"/>
  
  <!-- Keyboard -->
  <rect x="350" y="410" width="100" height="20" rx="3" ry="3" fill="#444" stroke="#333" stroke-width="1"/>
</svg>