<svg xmlns="http://www.w3.org/2000/svg" viewBox="0 0 800 600">
  <!-- Floor/Ground line -->
  <line x1="150" y1="520" x2="650" y2="520" stroke="#333" stroke-width="3"/>
  
  <!-- Desk -->
  <path d="M200,400 L600,400 L650,520 L150,520" fill="#e0e0e0" stroke="#bbb" stroke-width="2"/>
  <path d="M200,400 L600,400 L650,440 L150,440" fill="#d0d0d0" stroke="#bbb" stroke-width="1"/>
  
  <!-- Monitor -->
  <rect x="275" y="200" width="250" height="170" rx="5" ry="5" fill="#404254" stroke="#333" stroke-width="2"/>
  <rect x="285" y="210" width="230" height="140" rx="2" ry="2" fill="#2d3e50"/>
  
  <!-- Monitor Stand -->
  <path d="M375,370 L425,370 L415,400 L385,400" fill="#333" stroke="#222" stroke-width="1"/>
  
  <!-- ML/Statistics Visualization on Screen -->
  
  <!-- Coordinate System -->
  <line x1="300" y1="330" x2="500" y2="330" stroke="#666" stroke-width="1.5"/>
  <line x1="300" y1="330" x2="300" y2="230" stroke="#666" stroke-width="1.5"/>
  
  <!-- Scatter Plot Points -->
  <circle cx="320" cy="310" r="3" fill="#3498db"/>
  <circle cx="330" cy="290" r="3" fill="#3498db"/>
  <circle cx="345" cy="275" r="3" fill="#3498db"/>
  <circle cx="360" cy="285" r="3" fill="#3498db"/>
  <circle cx="375" cy="270" r="3" fill="#3498db"/>
  <circle cx="390" cy="260" r="3" fill="#3498db"/>
  <circle cx="405" cy="265" r="3" fill="#3498db"/>
  <circle cx="420" cy="250" r="3" fill="#3498db"/>
  <circle cx="435" cy="245" r="3" fill="#3498db"/>
  <circle cx="450" cy="240" r="3" fill="#3498db"/>
  <circle cx="465" cy="235" r="3" fill="#3498db"/>
  <circle cx="480" cy="245" r="3" fill="#3498db"/>
  
  <!-- Regression Line -->
  <line x1="310" y1="305" x2="490" y2="240" stroke="#e74c3c" stroke-width="2"/>
  
  <!-- Decision Boundary -->
  <path d="M350,240 Q400,270 450,245" stroke="#2ecc71" stroke-width="2" fill="none" stroke-dasharray="4,2"/>
  
  <!-- Neural Network Visualization -->
  <!-- Input Layer -->
  <circle cx="330" cy="270" r="5" fill="#9b59b6"/>
  <circle cx="330" cy="290" r="5" fill="#9b59b6"/>
  <circle cx="330" cy="310" r="5" fill="#9b59b6"/>
  
  <!-- Hidden Layer -->
  <circle cx="370" cy="260" r="5" fill="#9b59b6"/>
  <circle cx="370" cy="280" r="5" fill="#9b59b6"/>
  <circle cx="370" cy="300" r="5" fill="#9b59b6"/>
  <circle cx="370" cy="320" r="5" fill="#9b59b6"/>
  
  <!-- Output Layer -->
  <circle cx="410" cy="270" r="5" fill="#9b59b6"/>
  <circle cx="410" cy="290" r="5" fill="#9b59b6"/>
  <circle cx="410" cy="310" r="5" fill="#9b59b6"/>
  
  <!-- Connections -->
  <!-- Input to Hidden -->
  <line x1="330" y1="270" x2="370" y2="260" stroke="#9b59b6" stroke-width="0.5"/>
  <line x1="330" y1="270" x2="370" y2="280" stroke="#9b59b6" stroke-width="0.5"/>
  <line x1="330" y1="270" x2="370" y2="300" stroke="#9b59b6" stroke-width="0.5"/>
  <line x1="330" y1="270" x2="370" y2="320" stroke="#9b59b6" stroke-width="0.5"/>
  
  <line x1="330" y1="290" x2="370" y2="260" stroke="#9b59b6" stroke-width="0.5"/>
  <line x1="330" y1="290" x2="370" y2="280" stroke="#9b59b6" stroke-width="0.5"/>
  <line x1="330" y1="290" x2="370" y2="300" stroke="#9b59b6" stroke-width="0.5"/>
  <line x1="330" y1="290" x2="370" y2="320" stroke="#9b59b6" stroke-width="0.5"/>
  
  <line x1="330" y1="310" x2="370" y2="260" stroke="#9b59b6" stroke-width="0.5"/>
  <line x1="330" y1="310" x2="370" y2="280" stroke="#9b59b6" stroke-width="0.5"/>
  <line x1="330" y1="310" x2="370" y2="300" stroke="#9b59b6" stroke-width="0.5"/>
  <line x1="330" y1="310" x2="370" y2="320" stroke="#9b59b6" stroke-width="0.5"/>
  
  <!-- Hidden to Output -->
  <line x1="370" y1="260" x2="410" y2="270" stroke="#9b59b6" stroke-width="0.5"/>
  <line x1="370" y1="260" x2="410" y2="290" stroke="#9b59b6" stroke-width="0.5"/>
  <line x1="370" y1="260" x2="410" y2="310" stroke="#9b59b6" stroke-width="0.5"/>
  
  <line x1="370" y1="280" x2="410" y2="270" stroke="#9b59b6" stroke-width="0.5"/>
  <line x1="370" y1="280" x2="410" y2="290" stroke="#9b59b6" stroke-width="0.5"/>
  <line x1="370" y1="280" x2="410" y2="310" stroke="#9b59b6" stroke-width="0.5"/>
  
  <line x1="370" y1="300" x2="410" y2="270" stroke="#9b59b6" stroke-width="0.5"/>
  <line x1="370" y1="300" x2="410" y2="290" stroke="#9b59b6" stroke-width="0.5"/>
  <line x1="370" y1="300" x2="410" y2="310" stroke="#9b59b6" stroke-width="0.5"/>
  
  <line x1="370" y1="320" x2="410" y2="270" stroke="#9b59b6" stroke-width="0.5"/>
  <line x1="370" y1="320" x2="410" y2="290" stroke="#9b59b6" stroke-width="0.5"/>
  <line x1="370" y1="320" x2="410" y2="310" stroke="#9b59b6" stroke-width="0.5"/>
  
  <!-- Bar Chart -->
  <rect x="450" y="290" width="10" height="40" fill="#f1c40f"/>
  <rect x="465" y="280" width="10" height="50" fill="#f1c40f"/>
  <rect x="480" y="300" width="10" height="30" fill="#f1c40f"/>
  
  <!-- Floating Elements (Statistics/ML-themed) -->
  <!-- Probability Curve -->
  <path d="M150,240 Q200,180 250,240" fill="none" stroke="#3498db" stroke-width="2" opacity="0.7"/>
  <path d="M250,240 Q300,300 350,240" fill="none" stroke="#3498db" stroke-width="2" opacity="0.7"/>
  
  <!-- Matrix -->
  <rect x="150" y="270" width="80" height="60" fill="#2c3e50" opacity="0.4" rx="3" ry="3"/>
  <rect x="155" y="275" width="15" height="10" fill="#ecf0f1" opacity="0.7" rx="1" ry="1"/>
  <rect x="175" y="275" width="15" height="10" fill="#ecf0f1" opacity="0.7" rx="1" ry="1"/>
  <rect x="195" y="275" width="15" height="10" fill="#ecf0f1" opacity="0.7" rx="1" ry="1"/>
  <rect x="215" y="275" width="10" height="10" fill="#ecf0f1" opacity="0.7" rx="1" ry="1"/>
  
  <rect x="155" y="290" width="15" height="10" fill="#ecf0f1" opacity="0.7" rx="1" ry="1"/>
  <rect x="175" y="290" width="15" height="10" fill="#ecf0f1" opacity="0.7" rx="1" ry="1"/>
  <rect x="195" y="290" width="15" height="10" fill="#ecf0f1" opacity="0.7" rx="1" ry="1"/>
  <rect x="215" y="290" width="10" height="10" fill="#ecf0f1" opacity="0.7" rx="1" ry="1"/>
  
  <rect x="155" y="305" width="15" height="10" fill="#ecf0f1" opacity="0.7" rx="1" ry="1"/>
  <rect x="175" y="305" width="15" height="10" fill="#ecf0f1" opacity="0.7" rx="1" ry="1"/>
  <rect x="195" y="305" width="15" height="10" fill="#ecf0f1" opacity="0.7" rx="1" ry="1"/>
  <rect x="215" y="305" width="10" height="10" fill="#ecf0f1" opacity="0.7" rx="1" ry="1"/>
  
  <!-- ML Formula/Equation -->
  <rect x="570" y="230" width="40" height="10" rx="2" ry="2" fill="#e74c3c" opacity="0.7"/>
  <rect x="615" y="230" width="20" height="10" rx="2" ry="2" fill="#ecf0f1" opacity="0.5"/>
  <rect x="580" y="250" width="70" height="8" rx="2" ry="2" fill="#3498db" opacity="0.7"/>
  <rect x="560" y="270" width="50" height="8" rx="2" ry="2" fill="#e67e22" opacity="0.7"/>
  <rect x="615" y="270" width="30" height="8" rx="2" ry="2" fill="#2ecc71" opacity="0.7"/>
  <rect x="570" y="290" width="60" height="8" rx="2" ry="2" fill="#9b59b6" opacity="0.7"/>
  
  <!-- Keyboard -->
  <rect x="350" y="410" width="100" height="20" rx="3" ry="3" fill="#444" stroke="#333" stroke-width="1"/>
  
  <!-- Notebook -->
  <rect x="470" y="410" width="80" height="60" fill="#16a085" stroke="#0e6251" stroke-width="1" rx="2" ry="2"/>
  <rect x="470" y="410" width="80" height="5" fill="#0e6251"/>
  <line x1="490" y1="420" x2="530" y2="420" stroke="#fff" stroke-width="0.5"/>
  <line x1="490" y1="430" x2="530" y2="430" stroke="#fff" stroke-width="0.5"/>
  <line x1="490" y1="440" x2="510" y2="440" stroke="#fff" stroke-width="0.5"/>
  <line x1="490" y1="450" x2="530" y2="450" stroke="#fff" stroke-width="0.5"/>
  <line x1="490" y1="460" x2="520" y2="460" stroke="#fff" stroke-width="0.5"/>
</svg>
