<svg xmlns="http://www.w3.org/2000/svg" viewBox="0 0 800 600">
  <!-- Floor/Ground line -->
  <line x1="150" y1="520" x2="650" y2="520" stroke="#333" stroke-width="3"/>
  
  <!-- Desk -->
  <path d="M200,400 L600,400 L650,520 L150,520" fill="#e0e0e0" stroke="#bbb" stroke-width="2"/>
  <path d="M200,400 L600,400 L650,440 L150,440" fill="#d0d0d0" stroke="#bbb" stroke-width="1"/>
  
  <!-- Monitor -->
  <rect x="275" y="200" width="250" height="170" rx="5" ry="5" fill="#404254" stroke="#333" stroke-width="2"/>
  <rect x="285" y="210" width="230" height="140" rx="2" ry="2" fill="#2d3e50"/>
  
  <!-- Monitor Stand -->
  <path d="M375,370 L425,370 L415,400 L385,400" fill="#333" stroke="#222" stroke-width="1"/>
  
  <!-- Frontend Visualizations on Screen -->
  
  <!-- Browser Window Frame -->
  <rect x="295" y="220" width="210" height="120" rx="3" ry="3" fill="#f5f5f5"/>
  <rect x="295" y="220" width="210" height="15" rx="3" ry="3" fill="#e0e0e0"/>
  <circle cx="303" cy="227" r="3" fill="#ff6058"/>
  <circle cx="313" cy="227" r="3" fill="#ffbd2e"/>
  <circle cx="323" cy="227" r="3" fill="#28ca41"/>
  <rect x="335" y="224" width="130" height="8" rx="2" ry="2" fill="#ddd"/>
  
  <!-- Website Layout -->
  <!-- Navigation Bar -->
  <rect x="295" y="235" width="210" height="20" fill="#3498db"/>
  <rect x="305" y="240" width="25" height="10" rx="2" ry="2" fill="#ffffff" opacity="0.8"/>
  <rect x="340" y="240" width="25" height="10" rx="2" ry="2" fill="#ffffff" opacity="0.8"/>
  <rect x="375" y="240" width="25" height="10" rx="2" ry="2" fill="#ffffff" opacity="0.8"/>
  <rect x="410" y="240" width="25" height="10" rx="2" ry="2" fill="#ffffff" opacity="0.8"/>
  <rect x="470" y="240" width="25" height="10" rx="2" ry="2" fill="#ffffff" opacity="0.8"/>
  
  <!-- Hero Section -->
  <rect x="295" y="255" width="210" height="35" fill="#f1c40f" opacity="0.7"/>
  <rect x="315" y="262" width="80" height="8" rx="2" ry="2" fill="#333" opacity="0.8"/>
  <rect x="315" y="275" width="120" height="4" rx="1" ry="1" fill="#333" opacity="0.6"/>
  <rect x="315" y="282" width="120" height="4" rx="1" ry="1" fill="#333" opacity="0.6"/>
  <rect x="445" y="267" width="40" height="15" rx="3" ry="3" fill="#e74c3c"/>
  
  <!-- Content Columns -->
  <rect x="305" y="300" width="60" height="30" fill="#ffffff" stroke="#ddd" stroke-width="1"/>
  <rect x="310" y="305" width="50" height="5" rx="1" ry="1" fill="#333" opacity="0.7"/>
  <rect x="310" y="315" width="40" height="3" rx="1" ry="1" fill="#333" opacity="0.5"/>
  <rect x="310" y="322" width="40" height="3" rx="1" ry="1" fill="#333" opacity="0.5"/>
  
  <rect x="375" y="300" width="60" height="30" fill="#ffffff" stroke="#ddd" stroke-width="1"/>
  <rect x="380" y="305" width="50" height="5" rx="1" ry="1" fill="#333" opacity="0.7"/>
  <rect x="380" y="315" width="40" height="3" rx="1" ry="1" fill="#333" opacity="0.5"/>
  <rect x="380" y="322" width="40" height="3" rx="1" ry="1" fill="#333" opacity="0.5"/>
  
  <rect x="445" y="300" width="60" height="30" fill="#ffffff" stroke="#ddd" stroke-width="1"/>
  <rect x="450" y="305" width="50" height="5" rx="1" ry="1" fill="#333" opacity="0.7"/>
  <rect x="450" y="315" width="40" height="3" rx="1" ry="1" fill="#333" opacity="0.5"/>
  <rect x="450" y="322" width="40" height="3" rx="1" ry="1" fill="#333" opacity="0.5"/>
  
  <!-- Floating Elements (Frontend-themed) -->
  <!-- CSS Block -->
  <rect x="150" y="240" width="100" height="80" fill="#2c3e50" opacity="0.4" rx="3" ry="3"/>
  <rect x="155" y="250" width="90" height="8" fill="#ecf0f1" opacity="0.7" rx="1" ry="1"/>
  <rect x="160" y="263" width="80" height="8" fill="#ecf0f1" opacity="0.7" rx="1" ry="1"/>
  <rect x="160" y="276" width="70" height="8" fill="#ecf0f1" opacity="0.7" rx="1" ry="1"/>
  <rect x="160" y="289" width="80" height="8" fill="#ecf0f1" opacity="0.7" rx="1" ry="1"/>
  <rect x="155" y="240" width="100" height="12" fill="#e74c3c" opacity="0.7" rx="3" ry="3"/>
  <text x="160" y="250" font-family="monospace" font-size="10" fill="#fff">.css</text>
  
  <!-- HTML Element -->
  <path d="M550,240 L590,240 L580,280 L560,280 Z" fill="#e67e22" opacity="0.7"/>
  <text x="561" y="260" font-family="monospace" font-size="10" fill="#fff">HTML</text>
  
  <!-- JS Function/Code Block -->
  <rect x="560" y="290" width="100" height="70" fill="#2980b9" opacity="0.4" rx="3" ry="3"/>
  <rect x="565" y="300" width="90" height="8" fill="#ecf0f1" opacity="0.7" rx="1" ry="1"/>
  <rect x="570" y="313" width="80" height="8" fill="#ecf0f1" opacity="0.7" rx="1" ry="1"/>
  <rect x="570" y="326" width="70" height="8" fill="#ecf0f1" opacity="0.7" rx="1" ry="1"/>
  <rect x="570" y="339" width="80" height="8" fill="#ecf0f1" opacity="0.7" rx="1" ry="1"/>
  <rect x="560" y="290" width="100" height="12" fill="#f1c40f" opacity="0.7" rx="3" ry="3"/>
  <text x="565" y="300" font-family="monospace" font-size="10" fill="#333">.js</text>
  
  <!-- Color Palette -->
  <circle cx="200" cy="350" r="12" fill="#e74c3c"/>
  <circle cx="225" cy="350" r="12" fill="#3498db"/>
  <circle cx="250" cy="350" r="12" fill="#2ecc71"/>
  <circle cx="175" cy="350" r="12" fill="#f1c40f"/>
  <rect x="170" y="370" width="85" height="15" rx="3" ry="3" fill="#333" opacity="0.3"/>
  
  <!-- Responsive Design Icons -->
  <rect x="520" y="210" width="20" height="30" rx="2" ry="2" stroke="#bdc3c7" stroke-width="1" fill="none"/>
  <rect x="550" y="210" width="30" height="20" rx="2" ry="2" stroke="#bdc3c7" stroke-width="1" fill="none"/>
  <rect x="590" y="210" width="15" height="25" rx="1" ry="1" stroke="#bdc3c7" stroke-width="1" fill="none"/>
  
  <!-- Keyboard -->
  <rect x="350" y="410" width="100" height="20" rx="3" ry="3" fill="#444" stroke="#333" stroke-width="1"/>
  
  <!-- Notebook -->
  <rect x="470" y="410" width="80" height="60" fill="#e74c3c" stroke="#c0392b" stroke-width="1" rx="2" ry="2"/>
  <rect x="470" y="410" width="80" height="5" fill="#c0392b"/>
  <line x1="490" y1="420" x2="530" y2="420" stroke="#fff" stroke-width="0.5"/>
  <line x1="490" y1="430" x2="530" y2="430" stroke="#fff" stroke-width="0.5"/>
  <line x1="490" y1="440" x2="510" y2="440" stroke="#fff" stroke-width="0.5"/>
  <line x1="490" y1="450" x2="530" y2="450" stroke="#fff" stroke-width="0.5"/>
  <line x1="490" y1="460" x2="520" y2="460" stroke="#fff" stroke-width="0.5"/>
</svg>