<svg xmlns="http://www.w3.org/2000/svg" viewBox="0 0 800 600">
  <!-- Background Circle -->
  <circle cx="400" cy="300" r="280" fill="#f5f5f5" opacity="0.7"/>
  
  <!-- Floor/Ground line -->
  <line x1="150" y1="520" x2="650" y2="520" stroke="#333" stroke-width="3"/>
  
  <!-- Desk -->
  <path d="M200,400 L600,400 L650,520 L150,520" fill="#e0e0e0" stroke="#bbb" stroke-width="2"/>
  <path d="M200,400 L600,400 L650,440 L150,440" fill="#d0d0d0" stroke="#bbb" stroke-width="1"/>
  
  <!-- Monitor -->
  <rect x="275" y="200" width="250" height="170" rx="5" ry="5" fill="#404254" stroke="#333" stroke-width="2"/>
  <rect x="285" y="210" width="230" height="140" rx="2" ry="2" fill="#2d3e50"/>
  
  <!-- Monitor Stand -->
  <path d="M375,370 L425,370 L415,400 L385,400" fill="#333" stroke="#222" stroke-width="1"/>
  
  <!-- Code Blocks on Screen (instead of text) -->
  <!-- Left Gutter/Line Numbers Area -->
  <rect x="285" y="210" width="15" height="140" fill="#263238" opacity="0.5"/>
  
  <!-- Code Blocks Row 1 -->
  <rect x="305" y="220" width="45" height="10" rx="2" ry="2" fill="#f1c40f" opacity="0.9"/>
  <rect x="355" y="220" width="60" height="10" rx="2" ry="2" fill="#3498db" opacity="0.9"/>
  <rect x="420" y="220" width="75" height="10" rx="2" ry="2" fill="#ecf0f1" opacity="0.5"/>
  
  <!-- Code Blocks Row 2 -->
  <rect x="315" y="240" width="30" height="10" rx="2" ry="2" fill="#e74c3c" opacity="0.9"/>
  <rect x="350" y="240" width="40" height="10" rx="2" ry="2" fill="#ecf0f1" opacity="0.5"/>
  
  <!-- Code Blocks Row 3 -->
  <rect x="325" y="260" width="40" height="10" rx="2" ry="2" fill="#2ecc71" opacity="0.9"/>
  <rect x="370" y="260" width="10" height="10" rx="2" ry="2" fill="#ecf0f1" opacity="0.5"/>
  <rect x="385" y="260" width="40" height="10" rx="2" ry="2" fill="#e67e22" opacity="0.9"/>
  <rect x="430" y="260" width="10" height="10" rx="2" ry="2" fill="#ecf0f1" opacity="0.5"/>
  
  <!-- Code Blocks Row 4 -->
  <rect x="325" y="280" width="25" height="10" rx="2" ry="2" fill="#2ecc71" opacity="0.9"/>
  <rect x="355" y="280" width="10" height="10" rx="2" ry="2" fill="#ecf0f1" opacity="0.5"/>
  <rect x="370" y="280" width="50" height="10" rx="2" ry="2" fill="#f1c40f" opacity="0.9"/>
  <rect x="425" y="280" width="30" height="10" rx="2" ry="2" fill="#ecf0f1" opacity="0.5"/>
  
  <!-- Code Blocks Row 5 -->
  <rect x="335" y="300" width="35" height="10" rx="2" ry="2" fill="#e74c3c" opacity="0.9"/>
  <rect x="375" y="300" width="65" height="10" rx="2" ry="2" fill="#3498db" opacity="0.9"/>
  <rect x="445" y="300" width="50" height="10" rx="2" ry="2" fill="#ecf0f1" opacity="0.5"/>
  
  <!-- Code Blocks Row 6 -->
  <rect x="325" y="320" width="15" height="10" rx="2" ry="2" fill="#ecf0f1" opacity="0.5"/>
  
  <!-- Code Blocks Row 7 -->
  <rect x="315" y="340" width="20" height="10" rx="2" ry="2" fill="#ecf0f1" opacity="0.5"/>
  
  <!-- Code Blocks Row 8 -->
  <rect x="315" y="360" width="35" height="10" rx="2" ry="2" fill="#e74c3c" opacity="0.9"/>
  <rect x="355" y="360" width="40" height="10" rx="2" ry="2" fill="#ecf0f1" opacity="0.5"/>
  
  <!-- Floating Code Elements (decorative) -->
  <rect x="170" y="230" width="55" height="8" rx="2" ry="2" fill="#e74c3c" opacity="0.7"/>
  <rect x="230" y="230" width="30" height="8" rx="2" ry="2" fill="#e74c3c" opacity="0.7"/>
  
  <rect x="150" y="250" width="80" height="8" rx="2" ry="2" fill="#f1c40f" opacity="0.7"/>
  <rect x="160" y="265" width="40" height="8" rx="2" ry="2" fill="#f1c40f" opacity="0.7"/>
  
  <rect x="170" y="290" width="60" height="8" rx="2" ry="2" fill="#2ecc71" opacity="0.7"/>
  <rect x="190" y="305" width="30" height="8" rx="2" ry="2" fill="#2ecc71" opacity="0.7"/>
  
  <rect x="580" y="250" width="70" height="8" rx="2" ry="2" fill="#3498db" opacity="0.7"/>
  <rect x="620" y="265" width="40" height="8" rx="2" ry="2" fill="#3498db" opacity="0.7"/>
  <rect x="590" y="280" width="60" height="8" rx="2" ry="2" fill="#3498db" opacity="0.7"/>
  
  <rect x="560" y="310" width="50" height="8" rx="2" ry="2" fill="#e67e22" opacity="0.7"/>
  <rect x="570" y="325" width="70" height="8" rx="2" ry="2" fill="#e67e22" opacity="0.7"/>
  
  <!-- Keyboard -->
  <rect x="350" y="410" width="100" height="20" rx="3" ry="3" fill="#444" stroke="#333" stroke-width="1"/>
  
  <!-- Steam from coffee -->
  <path d="M510,403 Q513,398 510,393 Q507,388 510,383" stroke="#ddd" stroke-width="1" fill="none" opacity="0.7">
    <animate attributeName="opacity" values="0.7;0.2;0.7" dur="3s" repeatCount="indefinite"/>
  </path>
</svg>
