<svg width="178" height="39" viewBox="0 0 178 39" version="1.1" xmlns="http://www.w3.org/2000/svg" xmlns:xlink="http://www.w3.org/1999/xlink">
  <title>Group 5</title>
  <defs>
    <polygon id="path-1" points="0 0.6925425 37.8170325 0.6925425 37.8170325 37.2706425 0 37.2706425"></polygon>
    <polygon id="path-3" points="0.6681675 0.105495 21.5760675 0.105495 21.5760675 26.325 0.6681675 26.325"></polygon>
    <polygon id="path-5" points="0.112125 0.105495 21.020025 0.105495 21.020025 26.325 0.112125 26.325"></polygon>
  </defs>
  <g id="Page-1" stroke="none" stroke-width="1" fill="none" fill-rule="evenodd">
    <g id="Who-we-are" transform="translate(-63.000000, -27.000000)">
      <g id="Group-5" transform="translate(63.000000, 27.000000)">
        <g id="Group" transform="translate(-0.000000, 0.000000)">
          <g id="Group-18" transform="translate(-0.000000, 0.000000)">
            <g id="Group-3" transform="translate(0.000000, 0.282750)">
              <mask id="mask-2" fill="white">
                <use xlink:href="#path-1"></use>
              </mask>
              <g id="Clip-2"></g>
              <path d="M10.4127075,17.6594925 L27.4050075,17.6594925 L27.4050075,7.1938425 C27.4050075,5.3228175 27.2909325,4.0913925 27.0559575,3.4976175 C26.8775325,3.0491175 26.4963075,2.6610675 25.9230075,2.3373675 C25.1498325,1.9064175 24.3308325,1.6899675 23.4689325,1.6899675 L22.1741325,1.6899675 L22.1741325,0.6925425 L37.8170325,0.6925425 L37.8170325,1.6899675 L36.5222325,1.6899675 C35.6603325,1.6899675 34.8432825,1.8966675 34.0701075,2.3110425 C33.4948575,2.5976925 33.1019325,3.0344925 32.8952325,3.6185175 C32.6895075,4.2035175 32.5881075,5.3959425 32.5881075,7.1938425 L32.5881075,30.7966425 C32.5881075,32.6491425 32.7021825,33.8717925 32.9371575,34.4636175 C33.1175325,34.9150425 33.4851075,35.3021175 34.0408575,35.6258175 C34.8335325,36.0577425 35.6603325,36.2732175 36.5222325,36.2732175 L37.8170325,36.2732175 L37.8170325,37.2706425 L22.1741325,37.2706425 L22.1741325,36.2732175 L23.4689325,36.2732175 C24.9616575,36.2732175 26.0487825,35.8295925 26.7322575,34.9491675 C27.1817325,34.3768425 27.4050075,32.9923425 27.4050075,30.7966425 L27.4050075,19.6562925 L10.4127075,19.6562925 L10.4127075,30.7966425 C10.4127075,32.6491425 10.5287325,33.8717925 10.7627325,34.4636175 C10.9421325,34.9150425 11.3194575,35.3021175 11.8956825,35.6258175 C12.6688575,36.0577425 13.4878575,36.2732175 14.3507325,36.2732175 L15.6728325,36.2732175 L15.6728325,37.2706425 L-0.0002925,37.2706425 L-0.0002925,36.2732175 L1.2945075,36.2732175 C2.8047825,36.2732175 3.9016575,35.8295925 4.5851325,34.9491675 C5.0170575,34.3768425 5.2335075,32.9923425 5.2335075,30.7966425 L5.2335075,7.1938425 C5.2335075,5.3228175 5.1145575,4.0913925 4.8825075,3.4976175 C4.7031075,3.0491175 4.3326075,2.6610675 3.7758825,2.3373675 C2.9841825,1.9064175 2.1573825,1.6899675 1.2945075,1.6899675 L-0.0002925,1.6899675 L-0.0002925,0.6925425 L15.6728325,0.6925425 L15.6728325,1.6899675 L14.3507325,1.6899675 C13.4878575,1.6899675 12.6688575,1.8966675 11.8956825,2.3110425 C11.3379825,2.5976925 10.9518825,3.0344925 10.7364075,3.6185175 C10.5189825,4.2035175 10.4127075,5.3959425 10.4127075,7.1938425 L10.4127075,17.6594925 Z" id="Fill-1" fill="#003087" mask="url(#mask-2)"></path>
            </g>
            <path d="M54.95802,32.240715 L54.95802,22.824165 C52.240695,23.90349 50.48667,24.668865 49.69692,25.11834 C48.274395,25.909065 47.25942,26.73684 46.650045,27.599715 C46.03677,28.46454 45.729645,29.407365 45.729645,30.43209 C45.729645,31.72689 46.11672,32.798415 46.891845,33.65544 C47.66502,34.508565 48.55422,34.937565 49.563345,34.937565 C50.926395,34.937565 52.726245,34.036665 54.95802,32.240715 M54.95802,33.99279 C52.41912,35.95449 50.82987,37.08354 50.18247,37.39164 C49.210395,37.839165 48.176895,38.06829 47.08197,38.06829 C45.36987,38.06829 43.964895,37.48329 42.85632,36.312315 C41.751645,35.14134 41.197845,33.605715 41.197845,31.70154 C41.197845,30.49449 41.46987,29.45124 42.009045,28.570815 C42.746145,27.346215 44.027295,26.19864 45.85347,25.11834 C47.677695,24.040965 50.711895,22.726665 54.95802,21.17934 L54.95802,20.20824 C54.95802,17.744415 54.56412,16.053765 53.783145,15.137265 C53.00022,14.220765 51.86337,13.76154 50.368695,13.76154 C49.239645,13.76154 48.338745,14.06769 47.671845,14.67804 C46.98837,15.289365 46.650045,15.99039 46.650045,16.78209 L46.700745,18.346965 C46.700745,19.173765 46.49112,19.813365 46.068945,20.26284 C45.645795,20.71134 45.091995,20.936565 44.40852,20.936565 C43.74162,20.936565 43.198545,20.70354 42.77832,20.23554 C42.35517,19.76754 42.141645,19.12989 42.141645,18.32064 C42.141645,16.773315 42.93237,15.35274 44.516745,14.058915 C46.10112,12.76314 48.319245,12.11574 51.181845,12.11574 C53.373645,12.11574 55.173495,12.483315 56.57652,13.22139 C57.63537,13.778115 58.416345,14.651715 58.92042,15.83829 C59.24412,16.611465 59.40597,18.194865 59.40597,20.58654 L59.40597,28.974465 C59.40597,31.332015 59.451795,32.77404 59.539545,33.303465 C59.633145,33.83484 59.781345,34.188765 59.98707,34.370115 C60.194745,34.55049 60.432645,34.64019 60.701745,34.64019 C60.990345,34.64019 61.241895,34.57584 61.45737,34.450065 C61.834695,34.21704 62.562045,33.560865 63.64137,32.482515 L63.64137,33.99279 C61.62897,36.688665 59.705295,38.03904 57.87132,38.03904 C56.98992,38.03904 56.286945,37.73094 55.76337,37.121565 C55.243695,36.51219 54.97362,35.46504 54.95802,33.99279" id="Fill-4" fill="#003087"></path>
            <path d="M72.98031,12.1160325 L72.98031,17.6725575 C75.050235,13.9675575 77.169885,12.1160325 79.346085,12.1160325 C80.336685,12.1160325 81.155685,12.4173075 81.803085,13.0188825 C82.450485,13.6214325 82.774185,14.3185575 82.774185,15.1092825 C82.774185,15.8112825 82.540185,16.4040825 82.06926,16.8896325 C81.60321,17.3761575 81.048435,17.6189325 80.401035,17.6189325 C79.769235,17.6189325 79.06431,17.3088825 78.28041,16.6868325 C77.499435,16.0686825 76.918335,15.7566825 76.54101,15.7566825 C76.21731,15.7566825 75.869235,15.9370575 75.48801,16.2968325 C74.68071,17.0349075 73.843185,18.2487825 72.98031,19.9384575 L72.98031,31.7798325 C72.98031,33.1487325 73.15191,34.1832075 73.494135,34.8803325 C73.72716,35.3697825 74.141535,35.7734325 74.732385,36.0971325 C75.32811,36.4208325 76.183185,36.5826825 77.29761,36.5826825 L77.29761,37.5537825 L64.646985,37.5537825 L64.646985,36.5826825 C65.90376,36.5826825 66.838785,36.3847575 67.45206,35.9879325 C67.899585,35.6993325 68.213535,35.2420575 68.394885,34.6131825 C68.484585,34.3070325 68.53236,33.4344075 68.53236,31.9972575 L68.53236,22.4198325 C68.53236,19.5435825 68.470935,17.8295325 68.35296,17.2806075 C68.236935,16.7326575 68.01951,16.3329075 67.70556,16.0803825 C67.39161,15.8288325 67.000635,15.7040325 66.532635,15.7040325 C65.97591,15.7040325 65.34411,15.8376075 64.646985,16.1086575 L64.37496,15.1375575 L71.84736,12.1160325 L72.98031,12.1160325 Z" id="Fill-6" fill="#003087"></path>
            <path d="M91.6005675,4.7245575 L91.6005675,12.8443575 L97.3725675,12.8443575 L97.3725675,14.7329325 L91.6005675,14.7329325 L91.6005675,30.7551075 C91.6005675,32.3550825 91.8287175,33.4344075 92.2879425,33.9930825 C92.7452175,34.5507825 93.3350925,34.8306075 94.0536675,34.8306075 C94.6493925,34.8306075 95.2246425,34.6453575 95.7803925,34.2748575 C96.3380925,33.9072825 96.7709925,33.3642075 97.0751925,32.6446575 L98.1281925,32.6446575 C97.5002925,34.4035575 96.6091425,35.7315075 95.4566925,36.6226575 C94.3061925,37.5118575 93.1205925,37.9593825 91.8959925,37.9593825 C91.0691925,37.9593825 90.2599425,37.7273325 89.4692175,37.2700575 C88.6775175,36.8108325 88.0925175,36.1556325 87.7161675,35.2986075 C87.3388425,34.4454825 87.1487175,33.1302075 87.1487175,31.3498575 L87.1487175,14.7329325 L83.2370175,14.7329325 L83.2370175,13.8427575 C84.2276175,13.4469075 85.2367425,12.7780575 86.2721925,11.8313325 C87.3066675,10.8885075 88.2260925,9.7692075 89.0392425,8.4744075 C89.4506925,7.7909325 90.0259425,6.5409825 90.7649925,4.7245575 L91.6005675,4.7245575 Z" id="Fill-8" fill="#003087"></path>
            <path d="M107.280518,12.1160325 L107.280518,17.6725575 C109.350442,13.9675575 111.470092,12.1160325 113.646293,12.1160325 C114.636893,12.1160325 115.455893,12.4173075 116.103292,13.0188825 C116.750693,13.6214325 117.074393,14.3185575 117.074393,15.1092825 C117.074393,15.8112825 116.840392,16.4040825 116.369467,16.8896325 C115.903417,17.3761575 115.346692,17.6189325 114.699292,17.6189325 C114.069442,17.6189325 113.364517,17.3088825 112.580617,16.6868325 C111.799643,16.0686825 111.218542,15.7566825 110.841217,15.7566825 C110.517518,15.7566825 110.169442,15.9370575 109.788218,16.2968325 C108.980918,17.0349075 108.143393,18.2487825 107.280518,19.9384575 L107.280518,31.7798325 C107.280518,33.1487325 107.452117,34.1832075 107.794342,34.8803325 C108.027367,35.3697825 108.441743,35.7734325 109.032592,36.0971325 C109.628317,36.4208325 110.483392,36.5826825 111.597817,36.5826825 L111.597817,37.5537825 L98.9471925,37.5537825 L98.9471925,36.5826825 C100.203968,36.5826825 101.138992,36.3847575 101.752267,35.9879325 C102.199793,35.6993325 102.513743,35.2420575 102.695092,34.6131825 C102.784792,34.3070325 102.832567,33.4344075 102.832567,31.9972575 L102.832567,22.4198325 C102.832567,19.5435825 102.771142,17.8295325 102.653167,17.2806075 C102.537143,16.7326575 102.319717,16.3329075 102.005768,16.0803825 C101.691817,15.8288325 101.300843,15.7040325 100.832842,15.7040325 C100.276117,15.7040325 99.6443175,15.8376075 98.9471925,16.1086575 L98.6732175,15.1375575 L106.147567,12.1160325 L107.280518,12.1160325 Z" id="Fill-10" fill="#003087"></path>
            <g id="Group-14" transform="translate(117.000000, 11.982750)">
              <mask id="mask-4" fill="white">
                <use xlink:href="#path-3"></use>
              </mask>
              <g id="Clip-13"></g>
              <path d="M4.4979675,8.603595 L15.9347175,8.603595 C15.8479425,7.02117 15.6568425,5.90577 15.3672675,5.25837 C14.9197425,4.25022 14.2499175,3.46047 13.3587675,2.884245 C12.4695675,2.308995 11.5403925,2.02137 10.5692925,2.02137 C9.0736425,2.02137 7.7388675,2.60052 6.5600925,3.761745 C5.3832675,4.92102 4.6939425,6.53562 4.4979675,8.603595 L4.4979675,8.603595 Z M4.4979675,10.167495 C4.4784675,13.83447 5.3705925,16.711695 7.1675175,18.79722 C8.9673675,20.886645 11.0811675,21.927945 13.5069675,21.927945 C15.1254675,21.927945 16.5333675,21.48237 17.7287175,20.59512 C18.9250425,19.70202 19.9283175,18.178095 20.7375675,16.02042 L21.5760675,16.559595 C21.1948425,19.02537 20.0999175,21.266895 18.2815425,23.290995 C16.4660925,25.31412 14.1904425,26.325195 11.4584925,26.325195 C8.4915675,26.325195 5.9507175,25.170795 3.8369175,22.85907 C1.7250675,20.549295 0.6681675,17.44002 0.6681675,13.54002 C0.6681675,9.31437 1.7504175,6.01887 3.9168675,3.654495 C6.0842925,1.28817 8.8055175,0.105495 12.0785925,0.105495 C14.8475925,0.105495 17.1232425,1.01907 18.9035925,2.845245 C20.6829675,4.66947 21.5760675,7.109895 21.5760675,10.167495 L4.4979675,10.167495 Z" id="Fill-12" fill="#003087" mask="url(#mask-4)"></path>
            </g>
            <g id="Group-17" transform="translate(142.350000, 11.982750)">
              <mask id="mask-6" fill="white">
                <use xlink:href="#path-5"></use>
              </mask>
              <g id="Clip-16"></g>
              <path d="M3.943875,8.603595 L15.380625,8.603595 C15.2919,7.02117 15.1008,5.90577 14.813175,5.25837 C14.36565,4.25022 13.695825,3.46047 12.804675,2.884245 C11.915475,2.308995 10.9863,2.02137 10.0152,2.02137 C8.51955,2.02137 7.182825,2.60052 6.006,3.761745 C4.829175,4.92102 4.13985,6.53562 3.943875,8.603595 L3.943875,8.603595 Z M3.943875,10.167495 C3.924375,13.83447 4.8165,16.711695 6.611475,18.79722 C8.411325,20.886645 10.525125,21.927945 12.952875,21.927945 C14.571375,21.927945 15.977325,21.48237 17.174625,20.59512 C18.37095,19.70202 19.372275,18.178095 20.181525,16.02042 L21.020025,16.559595 C20.6388,19.02537 19.543875,21.266895 17.72745,23.290995 C15.91005,25.31412 13.6344,26.325195 10.90245,26.325195 C7.935525,26.325195 5.396625,25.170795 3.282825,22.85907 C1.169025,20.549295 0.112125,17.44002 0.112125,13.54002 C0.112125,9.31437 1.196325,6.01887 3.362775,3.654495 C5.5302,1.28817 8.249475,0.105495 11.5245,0.105495 C14.29155,0.105495 16.5672,1.01907 18.34755,2.845245 C20.128875,4.66947 21.020025,7.109895 21.020025,10.167495 L3.943875,10.167495 Z" id="Fill-15" fill="#003087" mask="url(#mask-6)"></path>
            </g>
          </g>
        </g>
        <path d="M170.498242,13.2270508 C171.39668,13.2270508 172.258496,12.9987793 173.083691,12.5422363 C173.908887,12.0856934 174.550977,11.4448242 175.009961,10.6196289 C175.468945,9.79443359 175.698438,8.93261719 175.698438,8.03417969 C175.698438,7.13085938 175.465283,6.26293945 174.998975,5.43041992 C174.532666,4.59790039 173.884473,3.95825195 173.054395,3.51147461 C172.224316,3.06469727 171.372266,2.84130859 170.498242,2.84130859 C169.629102,2.84130859 168.779492,3.06469727 167.949414,3.51147461 C167.119336,3.95825195 166.471143,4.59790039 166.004834,5.43041992 C165.538525,6.26293945 165.305371,7.13085938 165.305371,8.03417969 C165.305371,8.93261719 165.534863,9.79443359 165.993848,10.6196289 C166.452832,11.4448242 167.093701,12.0856934 167.916455,12.5422363 C168.739209,12.9987793 169.599805,13.2270508 170.498242,13.2270508 Z M170.498242,12.7802734 C169.67793,12.7802734 168.891797,12.5703125 168.139844,12.1503906 C167.387891,11.7304688 166.803174,11.1445312 166.385693,10.3925781 C165.968213,9.640625 165.759473,8.85449219 165.759473,8.03417969 C165.759473,7.20898438 165.971875,6.41674805 166.39668,5.6574707 C166.821484,4.89819336 167.412305,4.31347656 168.169141,3.90332031 C168.925977,3.49316406 169.702344,3.28808594 170.498242,3.28808594 C171.299023,3.28808594 172.077832,3.49316406 172.834668,3.90332031 C173.591504,4.31347656 174.182324,4.89819336 174.607129,5.6574707 C175.031934,6.41674805 175.244336,7.20898438 175.244336,8.03417969 C175.244336,8.85449219 175.035596,9.640625 174.618115,10.3925781 C174.200635,11.1445312 173.614697,11.7304688 172.860303,12.1503906 C172.105908,12.5703125 171.318555,12.7802734 170.498242,12.7802734 Z M170.227246,11.1762695 L170.227246,10.9345703 C169.900098,10.9345703 169.681592,10.8979492 169.571729,10.824707 C169.461865,10.7514648 169.392285,10.6342773 169.362988,10.4731445 L169.362988,10.4731445 L169.362988,8.20996094 L169.919629,8.20996094 L172.072949,11.1762695 L173.420605,11.1762695 L173.420605,10.9345703 C173.25459,10.9199219 173.125195,10.8833008 173.032422,10.824707 C172.885938,10.7270508 172.719922,10.5488281 172.534375,10.2900391 L172.534375,10.2900391 L171.003613,8.10742188 C171.584668,7.95605469 172.000928,7.73999023 172.252393,7.45922852 C172.503857,7.1784668 172.62959,6.85253906 172.62959,6.48144531 C172.62959,6.02734375 172.444043,5.64038086 172.072949,5.32055664 C171.701855,5.00073242 171.162305,4.84082031 170.454297,4.84082031 L170.454297,4.84082031 L167.627148,4.84082031 L167.627148,5.10449219 C167.846875,5.10449219 168.001904,5.13500977 168.092236,5.19604492 C168.182568,5.25708008 168.244824,5.34375 168.279004,5.45605469 C168.293652,5.51953125 168.300977,5.73193359 168.300977,6.09326172 L168.300977,9.92382812 C168.300977,10.2998047 168.283887,10.5268555 168.249707,10.6049805 C168.205762,10.7124023 168.134961,10.7941895 168.037305,10.8503418 C167.939648,10.9064941 167.773633,10.9345703 167.539258,10.9345703 L167.539258,10.9345703 L167.539258,11.1762695 L170.227246,11.1762695 Z M169.362988,7.89501953 L169.362988,5.28027344 C169.587598,5.20214844 169.792676,5.16308594 169.978223,5.16308594 C170.40791,5.16308594 170.760693,5.29736328 171.036572,5.56591797 C171.312451,5.83447266 171.450391,6.16650391 171.450391,6.56201172 C171.450391,6.82080078 171.37959,7.05151367 171.237988,7.25415039 C171.096387,7.45678711 170.892529,7.61425781 170.626416,7.7265625 C170.360303,7.83886719 169.93916,7.89501953 169.362988,7.89501953 L169.362988,7.89501953 Z" id="®" fill="#003087" fill-rule="nonzero"></path>
      </g>
    </g>
  </g>
</svg>
